<svg width="173" height="174" viewBox="0 0 173 174" fill="none" xmlns="http://www.w3.org/2000/svg">
<path d="M95.29 5.52092C95.288 4.97013 95.0755 4.51831 94.6524 4.16545C94.2293 3.8126 93.6853 3.59798 93.0203 3.5216C92.5341 3.46576 92.0997 3.49555 91.717 3.61096C91.3378 3.72679 91.0306 3.91064 90.7952 4.1625C90.5633 4.41478 90.4273 4.7161 90.3871 5.06644C90.3534 5.35959 90.3942 5.61964 90.5094 5.84657C90.6285 6.07035 90.791 6.26468 90.9966 6.42956C91.2026 6.59087 91.4221 6.73017 91.6549 6.84747C91.8882 6.96119 92.1036 7.05656 92.3012 7.13359L93.3821 7.562C93.6595 7.66993 93.9657 7.81015 94.3009 7.98266C94.6396 8.15559 94.9567 8.37493 95.2522 8.64068C95.5516 8.90327 95.7865 9.22364 95.9568 9.60179C96.1271 9.97994 96.1826 10.4264 96.1235 10.9412C96.0553 11.5347 95.8382 12.053 95.4722 12.4964C95.1097 12.9401 94.6155 13.2691 93.9896 13.4834C93.3673 13.698 92.6343 13.7569 91.7906 13.66C91.0041 13.5697 90.3377 13.3645 89.7913 13.0446C89.2484 12.7251 88.8386 12.3194 88.5619 11.8276C88.2887 11.3362 88.1652 10.7878 88.1912 10.1823L89.564 10.3399C89.5522 10.7587 89.6522 11.1179 89.8641 11.4176C90.0799 11.714 90.368 11.9499 90.7281 12.1253C91.0923 12.2976 91.4925 12.4087 91.9286 12.4588C92.4363 12.5171 92.9015 12.4873 93.3244 12.3692C93.7476 12.2476 94.0943 12.052 94.3643 11.7823C94.6348 11.5091 94.793 11.1723 94.839 10.7719C94.8809 10.4073 94.813 10.0989 94.6356 9.84666C94.4581 9.59446 94.2113 9.37776 93.8952 9.19658C93.5792 9.01539 93.2343 8.849 92.8605 8.6974L91.5535 8.15609C90.7238 7.81087 90.085 7.38071 89.6371 6.86563C89.1892 6.35055 89.0077 5.72299 89.0927 4.98297C89.1633 4.36807 89.3911 3.85092 89.7762 3.43151C90.1652 3.00894 90.6567 2.70318 91.2507 2.51423C91.8487 2.32212 92.498 2.26631 93.1987 2.34679C93.9066 2.42809 94.5212 2.62727 95.0426 2.94433C95.5644 3.25781 95.9611 3.65111 96.2328 4.12421C96.508 4.59773 96.6227 5.11257 96.577 5.66875L95.29 5.52092Z" fill="#2D2D2D"/>
<path d="M115.988 11.2448L114.733 10.7808C114.792 10.3922 114.779 10.0269 114.695 9.68487C114.613 9.34411 114.475 9.03227 114.281 8.74934C114.091 8.46428 113.854 8.21587 113.572 8.00413C113.29 7.79238 112.976 7.6229 112.632 7.49568C112.004 7.26371 111.377 7.2122 110.75 7.34117C110.126 7.47138 109.55 7.78984 109.022 8.29655C108.496 8.8045 108.068 9.50741 107.736 10.4053C107.404 11.3031 107.273 12.1158 107.342 12.8433C107.414 13.572 107.644 14.1885 108.034 14.6929C108.426 15.1985 108.936 15.5673 109.564 15.7993C109.908 15.9265 110.257 16.0015 110.609 16.0242C110.961 16.0469 111.301 16.0135 111.63 15.9238C111.963 15.8321 112.271 15.6832 112.554 15.4771C112.842 15.2689 113.09 14.9997 113.296 14.6693L114.552 15.1333C114.261 15.6283 113.914 16.0389 113.51 16.3652C113.105 16.6915 112.663 16.9328 112.183 17.0893C111.705 17.2424 111.206 17.3095 110.688 17.2905C110.172 17.2728 109.653 17.1672 109.13 16.9739C108.246 16.6472 107.539 16.1405 107.01 15.4541C106.481 14.7676 106.166 13.9531 106.066 13.0105C105.965 12.068 106.117 11.0499 106.521 9.95629C106.925 8.86265 107.472 7.99048 108.161 7.3398C108.85 6.68912 109.619 6.27496 110.467 6.09733C111.315 5.9197 112.182 5.99427 113.066 6.32103C113.589 6.51434 114.052 6.77176 114.455 7.09327C114.862 7.41603 115.196 7.79284 115.459 8.22369C115.723 8.65117 115.903 9.12033 115.998 9.63118C116.094 10.1387 116.091 10.6765 115.988 11.2448Z" fill="#2D2D2D"/>
<path d="M121.943 21.9765L128.221 12.8779L129.323 13.6381L126.527 17.6899L131.378 21.0375L134.174 16.9858L135.276 17.7461L128.998 26.8447L127.896 26.0844L130.704 22.0149L125.852 18.6673L123.044 22.7367L121.943 21.9765Z" fill="#2D2D2D"/>
<path d="M136.762 32.8215L144.984 25.4316L149.444 30.3933L148.561 31.1872L144.996 27.221L142.218 29.718L145.552 33.4273L144.669 34.2211L141.335 30.5118L138.541 33.0233L142.163 37.0537L141.28 37.8475L136.762 32.8215Z" fill="#2D2D2D"/>
<path d="M149.034 48.0547L147.4 45.0599L157.105 39.7659L158.811 42.8933C159.324 43.8347 159.569 44.7462 159.546 45.6279C159.526 46.5078 159.252 47.3236 158.723 48.0752C158.198 48.8251 157.433 49.4741 156.428 50.0221C155.417 50.5735 154.449 50.8682 153.522 50.9062C152.599 50.9424 151.754 50.7231 150.987 50.2481C150.223 49.7714 149.572 49.0403 149.034 48.0547ZM149.084 45.6664L150.035 47.4101C150.473 48.2125 150.99 48.7931 151.588 49.1517C152.185 49.5104 152.84 49.6633 153.553 49.6104C154.266 49.5575 155.018 49.3157 155.808 48.8848C156.591 48.4574 157.196 47.9616 157.622 47.3972C158.051 46.8311 158.278 46.2111 158.304 45.5371C158.333 44.8613 158.14 44.1443 157.727 43.3862L156.703 41.5097L149.084 45.6664Z" fill="#2D2D2D"/>
<path d="M168.222 65.4316L168.552 66.7289L161.458 68.5334C160.726 68.7197 160.028 68.7134 159.365 68.5145C158.706 68.3182 158.131 67.9501 157.641 67.4101C157.155 66.8693 156.805 66.1786 156.591 65.3382C156.377 64.4977 156.355 63.7236 156.524 63.016C156.696 62.3075 157.024 61.7078 157.508 61.2171C157.997 60.7289 158.607 60.3917 159.34 60.2054L166.433 58.401L166.763 59.6983L159.774 61.4761C159.251 61.6092 158.815 61.8427 158.465 62.1767C158.12 62.5098 157.884 62.9188 157.758 63.4037C157.637 63.8912 157.653 64.4331 157.804 65.0294C157.956 65.6258 158.202 66.1092 158.541 66.4796C158.884 66.8491 159.286 67.0957 159.748 67.2195C160.215 67.3459 160.71 67.3425 161.233 67.2094L168.222 65.4316Z" fill="#2D2D2D"/>
<path d="M159.774 79.092L170.828 78.9878L170.863 82.7228C170.871 83.59 170.722 84.3004 170.414 84.8539C170.109 85.4109 169.694 85.8251 169.168 86.0964C168.641 86.3676 168.052 86.5063 167.401 86.5125C166.75 86.5186 166.157 86.391 165.622 86.1298C165.086 85.8721 164.658 85.4695 164.336 84.922C164.018 84.3744 163.855 83.6706 163.847 82.8106L163.821 80.1334L165.009 80.1222L165.034 82.7562C165.039 83.3499 165.146 83.8257 165.355 84.1836C165.563 84.5415 165.843 84.7998 166.193 84.9584C166.548 85.1206 166.946 85.1997 167.389 85.1955C167.831 85.1913 168.226 85.1048 168.574 84.936C168.921 84.7708 169.192 84.5055 169.387 84.1402C169.585 83.7749 169.681 83.2918 169.675 82.6909L169.653 80.3375L159.787 80.4306L159.774 79.092Z" fill="#2D2D2D"/>
<path d="M156.826 107.388C156.913 107.136 157.078 106.951 157.321 106.834C157.564 106.716 157.811 106.701 158.062 106.788C158.314 106.876 158.498 107.041 158.616 107.284C158.734 107.526 158.749 107.773 158.661 108.025C158.574 108.277 158.409 108.461 158.166 108.579C157.924 108.696 157.676 108.711 157.425 108.624C157.258 108.566 157.12 108.471 157.01 108.337C156.899 108.207 156.825 108.058 156.789 107.889C156.754 107.725 156.767 107.558 156.826 107.388Z" fill="#2D2D2D"/>
<path d="M150.608 137.059C151.074 137.351 151.57 137.413 152.094 137.244C152.619 137.075 153.091 136.73 153.51 136.208C153.817 135.827 154.024 135.444 154.131 135.059C154.236 134.676 154.244 134.318 154.157 133.985C154.068 133.654 153.886 133.378 153.611 133.157C153.381 132.972 153.14 132.867 152.886 132.844C152.634 132.825 152.382 132.858 152.133 132.944C151.887 133.032 151.652 133.143 151.428 133.277C151.208 133.414 151.012 133.545 150.841 133.671L149.902 134.356C149.662 134.532 149.38 134.716 149.055 134.908C148.728 135.102 148.373 135.252 147.991 135.36C147.609 135.473 147.212 135.501 146.802 135.442C146.391 135.384 145.984 135.193 145.58 134.868C145.115 134.493 144.793 134.033 144.614 133.486C144.432 132.943 144.418 132.349 144.571 131.706C144.722 131.065 145.064 130.414 145.597 129.753C146.093 129.136 146.623 128.682 147.185 128.391C147.745 128.103 148.307 127.973 148.871 128.002C149.432 128.034 149.962 128.222 150.46 128.568L149.593 129.644C149.245 129.41 148.888 129.303 148.522 129.322C148.156 129.346 147.802 129.464 147.462 129.674C147.122 129.89 146.814 130.169 146.538 130.511C146.218 130.909 145.995 131.318 145.869 131.739C145.745 132.162 145.726 132.559 145.809 132.931C145.896 133.306 146.096 133.62 146.41 133.872C146.696 134.103 146.993 134.21 147.301 134.195C147.609 134.179 147.924 134.087 148.246 133.916C148.568 133.746 148.893 133.543 149.22 133.308L150.376 132.492C151.111 131.975 151.816 131.665 152.491 131.562C153.166 131.458 153.793 131.64 154.373 132.107C154.855 132.495 155.171 132.964 155.32 133.514C155.469 134.068 155.465 134.647 155.307 135.25C155.15 135.859 154.851 136.437 154.408 136.987C153.961 137.542 153.465 137.955 152.918 138.226C152.374 138.5 151.83 138.625 151.285 138.602C150.738 138.582 150.241 138.404 149.795 138.068L150.608 137.059Z" fill="#2D2D2D"/>
<path d="M134.724 151.518L135.785 150.702C136.083 150.959 136.399 151.142 136.733 151.253C137.065 151.365 137.403 151.414 137.746 151.4C138.088 151.391 138.424 151.323 138.754 151.197C139.083 151.071 139.394 150.896 139.685 150.672C140.215 150.264 140.593 149.76 140.817 149.161C141.039 148.564 141.076 147.906 140.928 147.189C140.778 146.474 140.411 145.737 139.827 144.978C139.244 144.22 138.626 143.676 137.973 143.347C137.318 143.02 136.673 142.887 136.039 142.948C135.402 143.011 134.819 143.247 134.288 143.655C133.997 143.878 133.748 144.133 133.542 144.419C133.335 144.706 133.182 145.012 133.083 145.337C132.983 145.668 132.945 146.008 132.969 146.358C132.992 146.712 133.088 147.065 133.258 147.416L132.197 148.232C131.933 147.722 131.77 147.21 131.709 146.694C131.648 146.178 131.679 145.675 131.802 145.185C131.927 144.699 132.135 144.241 132.428 143.812C132.717 143.385 133.082 143.002 133.525 142.662C134.272 142.087 135.077 141.759 135.94 141.676C136.802 141.594 137.659 141.761 138.511 142.178C139.362 142.594 140.144 143.264 140.854 144.189C141.565 145.113 142.012 146.04 142.196 146.97C142.38 147.9 142.322 148.771 142.021 149.583C141.72 150.396 141.195 151.09 140.448 151.665C140.006 152.005 139.541 152.26 139.055 152.43C138.565 152.602 138.068 152.684 137.564 152.678C137.061 152.674 136.568 152.576 136.085 152.384C135.604 152.196 135.151 151.907 134.724 151.518Z" fill="#2D2D2D"/>
<path d="M122.45 150.867L126.812 161.025L125.582 161.553L123.639 157.03L118.223 159.356L120.166 163.879L118.936 164.407L114.574 154.249L115.804 153.721L117.755 158.264L123.171 155.938L121.22 151.395L122.45 150.867Z" fill="#2D2D2D"/>
<path d="M105.398 157.633L107.253 168.531L100.676 169.65L100.477 168.479L105.734 167.584L105.107 163.902L100.191 164.739L99.9914 163.568L104.908 162.731L104.278 159.028L98.9354 159.937L98.7362 158.766L105.398 157.633Z" fill="#2D2D2D"/>
<path d="M85.8495 159.864L89.2538 160.083L88.5439 171.115L84.9888 170.886C83.9187 170.817 83.0172 170.537 82.2843 170.047C81.5512 169.559 81.0082 168.892 80.6553 168.043C80.3022 167.198 80.1624 166.205 80.2359 165.063C80.3098 163.914 80.5782 162.938 81.0409 162.134C81.5035 161.335 82.1405 160.738 82.952 160.343C83.7633 159.951 84.7291 159.792 85.8495 159.864ZM87.8417 161.182L85.8594 161.054C84.9473 160.996 84.1801 161.123 83.5577 161.436C82.9354 161.75 82.456 162.222 82.1198 162.853C81.7835 163.484 81.5864 164.248 81.5287 165.146C81.4713 166.037 81.5674 166.813 81.817 167.474C82.0662 168.139 82.4689 168.663 83.0248 169.045C83.5806 169.43 84.2894 169.651 85.1512 169.706L87.2843 169.844L87.8417 161.182Z" fill="#2D2D2D"/>
<path d="M60.9296 166.817L59.6563 166.404L61.9141 159.442C62.1472 158.723 62.5247 158.136 63.0468 157.681C63.5643 157.229 64.1821 156.939 64.9003 156.813C65.6173 156.689 66.3883 156.762 67.2133 157.029C68.0382 157.297 68.7049 157.691 69.2132 158.211C69.7205 158.735 70.0526 159.333 70.2094 160.004C70.3617 160.677 70.3213 161.374 70.0882 162.092L67.8304 169.055L66.5571 168.642L68.7815 161.782C68.948 161.269 68.9833 160.775 68.8872 160.301C68.7901 159.831 68.5699 159.414 68.2266 159.049C67.8789 158.686 67.4123 158.41 66.827 158.22C66.2416 158.031 65.7018 157.98 65.2075 158.07C64.7121 158.163 64.2888 158.371 63.9375 158.696C63.5818 159.024 63.3206 159.444 63.1541 159.957L60.9296 166.817Z" fill="#2D2D2D"/>
<path d="M53.9186 152.406L48.1003 161.806L44.9243 159.84C44.1869 159.383 43.6666 158.877 43.3632 158.321C43.0549 157.766 42.9267 157.194 42.9787 156.604C43.0307 156.014 43.2281 155.442 43.5709 154.888C43.9137 154.334 44.3385 153.901 44.8452 153.588C45.3489 153.274 45.9181 153.127 46.5529 153.147C47.1859 153.171 47.868 153.409 48.5992 153.862L50.8757 155.271L50.2507 156.281L48.0109 154.894C47.5061 154.582 47.0467 154.418 46.6328 154.403C46.2188 154.388 45.8512 154.486 45.5298 154.698C45.2034 154.911 44.9237 155.205 44.6908 155.581C44.4578 155.958 44.3199 156.338 44.2769 156.722C44.2309 157.104 44.3103 157.475 44.5151 157.834C44.7181 158.197 45.0751 158.536 45.5861 158.853L47.5871 160.091L52.7804 151.702L53.9186 152.406Z" fill="#2D2D2D"/>
<path d="M31.6326 134.841C31.799 135.049 31.8674 135.287 31.8378 135.555C31.8081 135.823 31.6893 136.04 31.4815 136.206C31.2736 136.373 31.0356 136.441 30.7676 136.412C30.4995 136.382 30.2822 136.263 30.1158 136.055C29.9493 135.848 29.8809 135.61 29.9106 135.341C29.9403 135.073 30.059 134.856 30.2669 134.69C30.4045 134.579 30.5591 134.513 30.7305 134.491C30.8996 134.467 31.0654 134.484 31.2278 134.543C31.3852 134.601 31.5201 134.7 31.6326 134.841Z" fill="#2D2D2D"/>
<path d="M9.80985 113.79C9.31372 114.03 8.99769 114.416 8.86174 114.95C8.7258 115.484 8.76672 116.067 8.98451 116.7C9.14376 117.163 9.35796 117.542 9.62711 117.838C9.89509 118.13 10.1935 118.328 10.5222 118.432C10.8498 118.532 11.1803 118.525 11.5138 118.41C11.7928 118.314 12.0098 118.165 12.1649 117.963C12.3154 117.759 12.4207 117.529 12.4808 117.272C12.5376 117.017 12.5686 116.759 12.5741 116.498C12.5761 116.239 12.5693 116.003 12.5536 115.792L12.4741 114.632C12.4519 114.335 12.4463 113.998 12.4575 113.621C12.4674 113.241 12.5286 112.861 12.641 112.479C12.7488 112.096 12.9366 111.746 13.2044 111.429C13.4722 111.113 13.8511 110.87 14.341 110.701C14.9059 110.507 15.4672 110.479 16.025 110.618C16.5817 110.754 17.0916 111.058 17.5548 111.53C18.0168 111.999 18.386 112.635 18.6623 113.438C18.9199 114.187 19.0222 114.877 18.9691 115.508C18.9149 116.135 18.7255 116.68 18.4011 117.142C18.0756 117.6 17.634 117.948 17.0764 118.186L16.6267 116.879C17.0097 116.709 17.2907 116.464 17.4697 116.144C17.6441 115.821 17.7328 115.459 17.7357 115.059C17.7341 114.656 17.6619 114.247 17.519 113.832C17.3528 113.349 17.1252 112.942 16.8364 112.611C16.5441 112.282 16.2182 112.053 15.8585 111.926C15.4954 111.8 15.1233 111.802 14.7422 111.933C14.3951 112.053 14.146 112.247 13.995 112.516C13.844 112.785 13.7549 113.101 13.7277 113.464C13.7004 113.827 13.699 114.21 13.7234 114.613L13.7985 116.025C13.8448 116.923 13.7321 117.685 13.4605 118.311C13.1889 118.937 12.7009 119.372 11.9965 119.614C11.4113 119.815 10.8464 119.833 10.302 119.666C9.75299 119.497 9.26518 119.186 8.83859 118.731C8.40742 118.275 8.07709 117.713 7.84759 117.046C7.61575 116.372 7.53046 115.732 7.59172 115.125C7.64959 114.519 7.83339 113.991 8.14313 113.542C8.4517 113.089 8.86676 112.764 9.38832 112.565L9.80985 113.79Z" fill="#2D2D2D"/>
<path d="M6.05423 92.6411L6.17723 93.9741C5.80109 94.0883 5.477 94.2574 5.20494 94.4812C4.93255 94.7015 4.71071 94.9605 4.53942 95.2582C4.36422 95.5526 4.24199 95.8729 4.17274 96.2189C4.10349 96.565 4.08573 96.9208 4.11945 97.2863C4.18095 97.9528 4.40508 98.541 4.79184 99.051C5.17826 99.5574 5.71405 99.9398 6.39922 100.198C7.08405 100.453 7.90304 100.536 8.85619 100.449C9.80934 100.361 10.5992 100.129 11.2259 99.7529C11.8522 99.3734 12.309 98.8994 12.5962 98.3309C12.8831 97.7587 12.9958 97.1394 12.9343 96.4729C12.9006 96.1074 12.818 95.7609 12.6866 95.4333C12.5552 95.1058 12.3782 94.8131 12.1556 94.5554C11.9292 94.2944 11.6619 94.0806 11.3538 93.9138C11.0418 93.7439 10.6922 93.637 10.3051 93.5932L10.1821 92.2602C10.754 92.3087 11.2743 92.445 11.7431 92.6691C12.2119 92.8933 12.6203 93.1881 12.9684 93.5534C13.313 93.9192 13.5885 94.34 13.7951 94.8161C14.0013 95.2885 14.13 95.8024 14.1813 96.3578C14.2679 97.2967 14.1156 98.1527 13.7244 98.926C13.3332 99.6993 12.7341 100.335 11.9271 100.832C11.1202 101.329 10.1362 101.631 8.97522 101.739C7.81425 101.846 6.79159 101.729 5.90725 101.387C5.02292 101.046 4.3177 100.531 3.79159 99.8426C3.26548 99.1539 2.95911 98.3402 2.87248 97.4014C2.82123 96.846 2.85374 96.3172 2.97002 95.815C3.08597 95.3092 3.28163 94.8448 3.557 94.4219C3.82879 93.9993 4.17461 93.6349 4.59447 93.3288C5.01074 93.0229 5.49733 92.7937 6.05423 92.6411Z" fill="#2D2D2D"/>
<path d="M13.162 82.5018L2.24331 80.7741L2.45253 79.4519L7.31476 80.2213L8.236 74.3994L3.37377 73.63L3.58298 72.3079L14.5017 74.0356L14.2925 75.3578L9.4089 74.585L8.48767 80.4069L13.3712 81.1797L13.162 82.5018Z" fill="#2D2D2D"/>
<path d="M16.5293 64.4768L6.3212 60.2346L8.88145 54.0738L9.97803 54.5295L7.93148 59.4541L11.3807 60.8875L13.2947 56.2819L14.3913 56.7376L12.4773 61.3432L15.9465 62.7849L18.0262 57.7805L19.1227 58.2363L16.5293 64.4768Z" fill="#2D2D2D"/>
<path d="M25.0198 46.8348L23.016 49.5957L14.0695 43.1023L16.1621 40.2192C16.792 39.3513 17.5101 38.7387 18.3164 38.3813C19.1198 38.0218 19.9744 37.9195 20.8801 38.0744C21.783 38.2273 22.6974 38.6398 23.6236 39.3119C24.5555 39.9883 25.2373 40.7366 25.6691 41.5569C26.098 42.3751 26.2626 43.2326 26.1629 44.1296C26.0603 45.0245 25.6793 45.9262 25.0198 46.8348ZM22.8413 47.8148L24.008 46.2072C24.5449 45.4675 24.8471 44.7509 24.9147 44.0574C24.9823 43.3639 24.8392 42.7065 24.4854 42.0851C24.1316 41.4637 23.5907 40.8888 22.8626 40.3603C22.1404 39.8361 21.433 39.5028 20.7405 39.3604C20.0451 39.2158 19.3874 39.2765 18.7675 39.5424C18.1447 39.8063 17.5797 40.2877 17.0724 40.9866L15.8169 42.7165L22.8413 47.8148Z" fill="#2D2D2D"/>
<path d="M32.4346 22.0561L33.4622 21.1982L38.1527 26.8171C38.637 27.3972 38.9326 28.0293 39.0396 28.7134C39.1471 29.3924 39.0631 30.0696 38.7877 30.7448C38.51 31.4172 38.0383 32.0314 37.3725 32.5871C36.7068 33.1429 36.0183 33.4973 35.307 33.6504C34.5935 33.8008 33.9109 33.7636 33.2592 33.5388C32.608 33.309 32.0402 32.904 31.5559 32.3239L26.8654 26.7051L27.8931 25.8472L32.5144 31.3832C32.8603 31.7976 33.2593 32.0903 33.7115 32.2613C34.1613 32.4295 34.632 32.4655 35.1235 32.3693C35.6155 32.2679 36.0976 32.0201 36.57 31.6258C37.0424 31.2314 37.3724 30.8013 37.56 30.3353C37.7453 29.8666 37.7939 29.3971 37.706 28.9267C37.6185 28.4513 37.4018 28.0064 37.0559 27.592L32.4346 22.0561Z" fill="#2D2D2D"/>
<path d="M48.3708 23.7833L43.5025 13.8585L46.856 12.2135C47.6346 11.8316 48.3399 11.66 48.9721 11.6986C49.6059 11.7324 50.1589 11.9281 50.6309 12.2857C51.1029 12.6434 51.4824 13.1146 51.7692 13.6993C52.0561 14.2841 52.1972 14.8742 52.1927 15.4696C52.1914 16.0634 52.0133 16.6237 51.6585 17.1505C51.302 17.6741 50.7378 18.1252 49.9656 18.504L47.5619 19.683L47.039 18.6169L49.4039 17.4568C49.9369 17.1954 50.3199 16.8933 50.5526 16.5507C50.7853 16.208 50.8975 15.8444 50.8892 15.4597C50.8825 15.0702 50.7817 14.6767 50.5868 14.2793C50.3918 13.882 50.1432 13.563 49.8409 13.3226C49.5418 13.0805 49.1855 12.9506 48.772 12.933C48.357 12.9121 47.8797 13.034 47.3402 13.2987L45.2273 14.3351L49.5727 23.1938L48.3708 23.7833Z" fill="#2D2D2D"/>
<path d="M75.0811 14.2787C74.8165 14.3084 74.5788 14.2391 74.368 14.0708C74.1572 13.9025 74.037 13.686 74.0074 13.4214C73.9777 13.1568 74.047 12.9191 74.2153 12.7083C74.3836 12.4975 74.6001 12.3773 74.8647 12.3477C75.1293 12.318 75.367 12.3873 75.5778 12.5556C75.7886 12.7239 75.9088 12.9403 75.9385 13.205C75.9581 13.3802 75.9314 13.5461 75.8585 13.7028C75.7891 13.859 75.6861 13.9901 75.5495 14.0959C75.416 14.1978 75.2599 14.2587 75.0811 14.2787Z" fill="#2D2D2D"/>
</svg>
