<svg width="166" height="224" viewBox="0 0 166 224" fill="none" xmlns="http://www.w3.org/2000/svg">
<g filter="url(#filter0_ddddd_11_217)">
<path d="M22.981 65.4332C22.981 32.2961 49.8439 5.43323 82.981 5.43323C116.118 5.43323 142.981 32.2961 142.981 65.4332C142.981 98.5703 116.118 125.433 82.981 125.433C49.8439 125.433 22.981 98.5703 22.981 65.4332Z" fill="url(#paint0_linear_11_217)"/>
<path d="M82.981 4.43323C116.67 4.43323 143.981 31.7439 143.981 65.4332C143.981 99.1226 116.67 126.433 82.981 126.433C49.2916 126.433 21.981 99.1226 21.981 65.4332C21.981 31.7439 49.2916 4.43323 82.981 4.43323Z" stroke="url(#paint1_linear_11_217)" stroke-width="2"/>
<path d="M70.9251 86.7403C70.4163 86.7126 70.0904 86.4795 70.0014 85.9505C69.9006 85.353 70.0513 84.8561 70.4537 84.4598C71.2169 83.7061 71.729 83.1611 72.9877 81.8558C73.0703 81.7697 73.3103 81.5086 73.7077 81.0727C74.2505 80.4757 74.8732 80.3986 75.6647 80.3986C81.7004 80.4031 84.9285 80.4011 85.3492 80.3927C86.4125 80.3709 87.5033 80.2703 88.6032 79.9534C92.6062 78.7989 95.5825 75.5895 96.2808 71.4353C96.4194 70.6109 96.4914 69.702 96.497 68.7088C96.5164 65.3457 96.5078 62.9563 96.4712 61.5405C96.4612 61.1543 96.4077 60.646 96.3107 60.0155C96.0475 58.3046 95.4303 56.7429 94.4593 55.3305C93.0294 53.2487 90.99 51.6759 88.5699 50.949C87.4759 50.6198 86.3607 50.458 85.2246 50.4636C84.0235 50.4698 83.0076 50.47 82.1768 50.4644C80.7097 50.4549 79.6949 50.4882 79.1323 50.5642C75.9499 50.9943 73.0492 52.7415 71.2884 55.452C70.304 56.9671 69.767 58.5701 69.5409 60.3885C69.4843 60.8435 69.4539 61.5567 69.4494 62.5281C69.4154 69.3292 69.4536 75.7405 69.4295 80.7188C69.4278 81.076 69.3297 81.4296 69.1351 81.7794C69.1202 81.8062 69.1027 81.8315 69.0828 81.8549C68.8893 82.0852 68.5865 82.4166 68.1741 82.8493C66.7298 84.365 65.6875 85.4519 65.0474 86.1098C64.847 86.3169 64.6142 86.5491 64.3532 86.6212C63.8532 86.7592 63.4885 86.5659 63.2591 86.041C63.2048 85.9175 63.1746 85.6945 63.1685 85.372C63.1557 84.7398 63.1491 84.2787 63.1485 83.9886C63.1452 80.9944 63.1374 74.8042 63.1252 65.4181C63.1227 63.3498 63.0845 61.8088 63.2416 60.0331C63.4794 57.3569 64.3072 54.847 65.7249 52.5034C68.3046 48.2402 72.4922 45.2102 77.3873 44.3676C78.4639 44.1823 79.7093 44.1052 80.968 44.0993C83.175 44.0887 84.7185 44.089 85.5987 44.1002C88.9673 44.1446 92.2072 45.1406 94.998 47.0505C97.164 48.5322 98.9246 50.4178 100.28 52.7071C101.932 55.499 102.779 58.5553 102.82 61.8759C102.845 63.8511 102.849 66.1078 102.833 68.6459C102.827 69.5536 102.78 70.4541 102.691 71.3472C102.576 72.5148 102.314 73.7235 101.907 74.9733C100.812 78.3378 98.6934 81.268 95.8909 83.3632C93.3874 85.2345 90.5713 86.3403 87.4426 86.6807C86.9155 86.7383 86.0584 86.7676 84.8712 86.7687C77.1611 86.7771 72.8381 86.7771 71.9019 86.7687C71.5328 86.7654 71.2072 86.7559 70.9251 86.7403Z" fill="white"/>
<path d="M83.7465 57.7466C83.8468 57.8539 83.8975 58.0574 83.8986 58.357C83.9092 61.5194 83.9069 63.7345 83.8919 65.0021C83.8903 65.1631 83.9311 65.2822 84.0142 65.3593C84.9852 66.2597 85.9138 67.1887 86.8791 68.0866C87.5076 68.6718 88.0205 69.1975 88.6698 69.7567C88.7563 69.8313 88.8469 69.9462 88.955 70.0828C89.1184 70.2896 89.111 70.4914 88.9325 70.6882C88.5576 71.1006 88.0862 71.7496 87.6339 71.2893C87.17 70.8181 86.8064 70.4593 86.5432 70.2128C83.9759 67.8144 82.5632 66.4858 82.3049 66.2271C82.1403 66.0616 82.0591 65.8637 82.0613 65.6335C82.0696 64.8169 82.0752 62.6141 82.0779 59.0252C82.0779 58.9011 82.0812 58.6373 82.0879 58.2337C82.0937 57.8808 82.1769 57.6385 82.546 57.6242C82.9026 57.61 83.3873 57.5479 83.68 57.6963C83.7047 57.7091 83.7272 57.7261 83.7465 57.7466Z" fill="white"/>
</g>
<defs>
<filter id="filter0_ddddd_11_217" x="3.05176e-05" y="-1.52588e-05" width="165.962" height="223.946" filterUnits="userSpaceOnUse" color-interpolation-filters="sRGB">
<feFlood flood-opacity="0" result="BackgroundImageFix"/>
<feColorMatrix in="SourceAlpha" type="matrix" values="0 0 0 0 0 0 0 0 0 0 0 0 0 0 0 0 0 0 127 0" result="hardAlpha"/>
<feOffset dy="3.05177"/>
<feGaussianBlur stdDeviation="3.24251"/>
<feColorMatrix type="matrix" values="0 0 0 0 0.0477996 0 0 0 0 0.225962 0 0 0 0 0.116323 0 0 0 0.4 0"/>
<feBlend mode="normal" in2="BackgroundImageFix" result="effect1_dropShadow_11_217"/>
<feColorMatrix in="SourceAlpha" type="matrix" values="0 0 0 0 0 0 0 0 0 0 0 0 0 0 0 0 0 0 127 0" result="hardAlpha"/>
<feOffset dy="12.2071"/>
<feGaussianBlur stdDeviation="6.10354"/>
<feColorMatrix type="matrix" values="0 0 0 0 0.0470588 0 0 0 0 0.227451 0 0 0 0 0.117647 0 0 0 0.35 0"/>
<feBlend mode="normal" in2="effect1_dropShadow_11_217" result="effect2_dropShadow_11_217"/>
<feColorMatrix in="SourceAlpha" type="matrix" values="0 0 0 0 0 0 0 0 0 0 0 0 0 0 0 0 0 0 127 0" result="hardAlpha"/>
<feOffset dy="27.0845"/>
<feGaussianBlur stdDeviation="8.20164"/>
<feColorMatrix type="matrix" values="0 0 0 0 0.0470588 0 0 0 0 0.227451 0 0 0 0 0.117647 0 0 0 0.2 0"/>
<feBlend mode="normal" in2="effect2_dropShadow_11_217" result="effect3_dropShadow_11_217"/>
<feColorMatrix in="SourceAlpha" type="matrix" values="0 0 0 0 0 0 0 0 0 0 0 0 0 0 0 0 0 0 127 0" result="hardAlpha"/>
<feOffset dy="48.4469"/>
<feGaussianBlur stdDeviation="9.72752"/>
<feColorMatrix type="matrix" values="0 0 0 0 0.0470588 0 0 0 0 0.227451 0 0 0 0 0.117647 0 0 0 0.06 0"/>
<feBlend mode="normal" in2="effect3_dropShadow_11_217" result="effect4_dropShadow_11_217"/>
<feColorMatrix in="SourceAlpha" type="matrix" values="0 0 0 0 0 0 0 0 0 0 0 0 0 0 0 0 0 0 127 0" result="hardAlpha"/>
<feOffset dy="75.5313"/>
<feGaussianBlur stdDeviation="10.4905"/>
<feColorMatrix type="matrix" values="0 0 0 0 0.0470588 0 0 0 0 0.227451 0 0 0 0 0.117647 0 0 0 0.01 0"/>
<feBlend mode="normal" in2="effect4_dropShadow_11_217" result="effect5_dropShadow_11_217"/>
<feBlend mode="normal" in="SourceGraphic" in2="effect5_dropShadow_11_217" result="shape"/>
</filter>
<linearGradient id="paint0_linear_11_217" x1="38.5101" y1="5.43325" x2="154.73" y2="28.0913" gradientUnits="userSpaceOnUse">
<stop stop-color="#2DAF5F"/>
<stop offset="1" stop-color="#217B43"/>
</linearGradient>
<linearGradient id="paint1_linear_11_217" x1="82.981" y1="5.43323" x2="82.981" y2="125.433" gradientUnits="userSpaceOnUse">
<stop stop-color="#2DAF5F"/>
<stop offset="1" stop-color="#217B43"/>
</linearGradient>
</defs>
</svg>
