<svg width="40" height="40" viewBox="0 0 40 40" fill="none" xmlns="http://www.w3.org/2000/svg">
<rect x="0.5" y="0.5" width="39" height="39" rx="19.5" fill="#2DAF5F"/>
<rect x="0.5" y="0.5" width="39" height="39" rx="19.5" stroke="#0D1114"/>
<path d="M19.7342 17.1305C20.7089 16.1346 21.9779 15.4831 23.4542 15.4831C25.0046 15.4831 26.4915 16.0989 27.5878 17.1952C28.6841 18.2915 29.3 19.7784 29.3 21.3288V29.3002H27.1742V21.3288C27.1742 20.3422 26.7823 19.396 26.0847 18.6983C25.387 18.0007 24.4408 17.6088 23.4542 17.6088C22.4676 17.6088 21.5214 18.0007 20.8238 18.6983C20.1262 19.396 19.7342 20.3422 19.7342 21.3288V29.3002H17.6085V16.0145H19.7342V17.1305ZM12.2942 13.8888C11.8714 13.8888 11.4659 13.7208 11.1669 13.4218C10.8679 13.1228 10.7 12.7173 10.7 12.2945C10.7 11.8717 10.8679 11.4661 11.1669 11.1672C11.4659 10.8682 11.8714 10.7002 12.2942 10.7002C12.7171 10.7002 13.1226 10.8682 13.4216 11.1672C13.7206 11.4661 13.8885 11.8717 13.8885 12.2945C13.8885 12.7173 13.7206 13.1228 13.4216 13.4218C13.1226 13.7208 12.7171 13.8888 12.2942 13.8888ZM11.2314 16.0145H13.3571V29.3002H11.2314V16.0145Z" fill="white"/>
</svg>
