<svg width="57" height="57" viewBox="0 0 57 57" fill="none" xmlns="http://www.w3.org/2000/svg">
<circle cx="28.4975" cy="28.4975" r="28.4975" fill="#2DAF5F"/>
<g clip-path="url(#clip0_11_284)">
<path d="M22.7047 40.6245C22.3923 40.6077 22.1923 40.4658 22.1376 40.1437C22.0757 39.7798 22.1683 39.4773 22.4153 39.236C22.8838 38.7771 23.1982 38.4452 23.9709 37.6504C24.0216 37.598 24.1689 37.439 24.4128 37.1735C24.7461 36.8101 25.1284 36.7631 25.6142 36.7631C29.3195 36.7659 31.3012 36.7646 31.5594 36.7596C32.2123 36.7463 32.8818 36.6851 33.557 36.492C36.0144 35.7891 37.8415 33.8349 38.2702 31.3054C38.3553 30.8035 38.3996 30.25 38.4029 29.6453C38.4149 27.5975 38.4096 26.1427 38.3871 25.2805C38.381 25.0454 38.3482 24.7359 38.2886 24.352C38.127 23.3102 37.7481 22.3593 37.152 21.4993C36.2741 20.2318 35.0223 19.2741 33.5366 18.8315C32.865 18.631 32.1804 18.5325 31.4829 18.5359C30.7456 18.5396 30.1219 18.5398 29.6119 18.5364C28.7113 18.5306 28.0883 18.5509 27.743 18.5972C25.7893 18.859 24.0086 19.9229 22.9277 21.5733C22.3234 22.4958 21.9937 23.4719 21.8549 24.5791C21.8202 24.8561 21.8015 25.2905 21.7988 25.8819C21.7778 30.023 21.8013 33.9268 21.7865 36.9582C21.7855 37.1756 21.7253 37.3909 21.6059 37.6039C21.5967 37.6202 21.5859 37.6356 21.5737 37.6498C21.455 37.7901 21.269 37.9919 21.0159 38.2553C20.1292 39.1783 19.4894 39.84 19.0964 40.2406C18.9734 40.3667 18.8305 40.5081 18.6702 40.552C18.3633 40.6361 18.1395 40.5183 17.9986 40.1987C17.9653 40.1235 17.9467 39.9878 17.943 39.7914C17.9352 39.4064 17.9311 39.1257 17.9307 38.9491C17.9287 37.1259 17.9239 33.3567 17.9164 27.6416C17.9149 26.3822 17.8914 25.4439 17.9879 24.3627C18.1339 22.7332 18.642 21.2049 19.5123 19.7779C21.096 17.1821 23.6667 15.3371 26.6717 14.8241C27.3326 14.7113 28.0972 14.6643 28.8699 14.6607C30.2247 14.6543 31.1723 14.6544 31.7126 14.6612C33.7805 14.6883 35.7694 15.2948 37.4827 16.4577C38.8124 17.3599 39.8932 18.508 40.725 19.902C41.7397 21.6019 42.2595 23.4629 42.2848 25.4848C42.2997 26.6875 42.3022 28.0616 42.2924 29.6071C42.2889 30.1597 42.26 30.708 42.2056 31.2519C42.1345 31.9627 41.9741 32.6988 41.7244 33.4597C41.0517 35.5083 39.7513 37.2925 38.0308 38.5682C36.494 39.7076 34.7652 40.381 32.8445 40.5882C32.521 40.6233 31.9948 40.6412 31.266 40.6419C26.5329 40.6469 23.879 40.6469 23.3043 40.6419C23.0777 40.6398 22.8778 40.6341 22.7047 40.6245Z" fill="white"/>
<path d="M30.5756 22.9704C30.6371 23.0357 30.6682 23.1596 30.6689 23.342C30.6754 25.2676 30.674 26.6163 30.6649 27.3882C30.6639 27.4863 30.6888 27.5587 30.7399 27.6057C31.3359 28.1539 31.9061 28.7196 32.4986 29.2663C32.8844 29.6227 33.1993 29.9427 33.5979 30.2833C33.651 30.3287 33.7066 30.3986 33.7729 30.4818C33.8733 30.6077 33.8687 30.7305 33.7592 30.8504C33.529 31.1015 33.2396 31.4967 32.962 31.2164C32.6772 30.9295 32.454 30.711 32.2924 30.5609C30.7164 29.1005 29.8492 28.2916 29.6905 28.1341C29.5895 28.0333 29.5396 27.9129 29.541 27.7726C29.5461 27.2754 29.5496 25.9341 29.5513 23.7489C29.5513 23.6733 29.5533 23.5127 29.5574 23.267C29.5609 23.052 29.612 22.9045 29.8385 22.8958C30.0575 22.8872 30.355 22.8494 30.5347 22.9397C30.5499 22.9475 30.5637 22.9579 30.5756 22.9704Z" fill="white"/>
</g>
<defs>
<clipPath id="clip0_11_284">
<rect width="24.4265" height="26.0549" fill="white" transform="translate(17.9128 14.656)"/>
</clipPath>
</defs>
</svg>
