<svg width="40" height="43" viewBox="0 0 40 43" fill="none" xmlns="http://www.w3.org/2000/svg">
<path d="M7.80568 42.6487C7.29692 42.621 6.97102 42.3879 6.88206 41.8589C6.78118 41.2614 6.93192 40.7645 7.33433 40.3682C8.09752 39.6145 8.60963 39.0695 9.86831 37.7642C9.95092 37.6781 10.1909 37.4171 10.5883 36.9811C11.1312 36.3842 11.7538 36.307 12.5453 36.307C18.581 36.3115 21.8092 36.3096 22.2298 36.3012C23.2932 36.2794 24.3839 36.1788 25.4838 35.8618C29.4868 34.7074 32.4631 31.498 33.1615 27.3437C33.3 26.5193 33.372 25.6105 33.3776 24.6172C33.397 21.2542 33.3884 18.8647 33.3518 17.4489C33.3419 17.0627 33.2884 16.5544 33.1914 15.9239C32.9281 14.213 32.311 12.6514 31.3399 11.2389C29.91 9.15718 27.8707 7.58436 25.4506 6.85746C24.3565 6.52827 23.2414 6.36643 22.1052 6.37205C20.9041 6.37821 19.8882 6.37845 19.0574 6.37288C17.5903 6.36335 16.5755 6.39663 16.0129 6.47266C12.8305 6.90276 9.92984 8.64998 8.16899 11.3605C7.18465 12.8755 6.64764 14.4785 6.42151 16.297C6.36496 16.752 6.33449 17.4652 6.33003 18.4366C6.29597 25.2377 6.3342 31.6489 6.31007 36.6273C6.30842 36.9845 6.2103 37.338 6.01576 37.6879C6.00083 37.7147 5.98329 37.7399 5.96343 37.7633C5.76995 37.9936 5.46707 38.3251 5.05473 38.7577C3.61037 40.2735 2.56812 41.3604 1.92797 42.0182C1.72761 42.2253 1.49483 42.4576 1.23378 42.5296C0.733854 42.6677 0.369165 42.4743 0.139709 41.9495C0.0853932 41.8259 0.0551872 41.6029 0.0490903 41.2804C0.0363429 40.6483 0.0296902 40.1872 0.029136 39.8971C0.0258106 36.9029 0.0180513 30.7127 0.00585794 21.3265C0.00336386 19.2582 -0.0348793 17.7173 0.122248 15.9415C0.360018 13.2653 1.18778 10.7555 2.60553 8.41186C5.18526 4.14861 9.37282 1.11864 14.2679 0.276049C15.3445 0.0907627 16.5899 0.013629 17.8486 0.00776015C20.0556 -0.00285954 21.5991 -0.00257926 22.4793 0.00859938C25.8479 0.0530346 29.0878 1.04905 31.8786 2.95892C34.0446 4.44065 35.8052 6.32622 37.1603 8.61558C38.813 11.4074 39.6599 14.4637 39.701 17.7843C39.7253 19.7596 39.7295 22.0163 39.7134 24.5544C39.7079 25.4621 39.6608 26.3625 39.5721 27.2557C39.4563 28.4233 39.1949 29.632 38.7881 30.8818C37.6924 34.2463 35.5741 37.1765 32.7716 39.2716C30.268 41.1429 27.4519 42.2488 24.3232 42.5891C23.7962 42.6467 22.939 42.6761 21.7518 42.6772C14.0418 42.6856 9.71868 42.6856 8.78256 42.6772C8.41344 42.6738 8.08783 42.6643 7.80568 42.6487Z" fill="#30B063"/>
<path d="M20.6271 13.655C20.7274 13.7623 20.7781 13.9658 20.7793 14.2654C20.7898 17.4278 20.7875 19.6429 20.7726 20.9106C20.7709 21.0715 20.8117 21.1906 20.8948 21.2677C21.8658 22.1682 22.7944 23.0971 23.7597 23.995C24.3882 24.5802 24.9012 25.1059 25.5504 25.6651C25.6369 25.7397 25.7275 25.8546 25.8356 25.9913C25.9991 26.198 25.9916 26.3998 25.8131 26.5966C25.4382 27.009 24.9668 27.658 24.5145 27.1977C24.0506 26.7265 23.6871 26.3677 23.4238 26.1212C20.8565 23.7228 19.4438 22.3943 19.1855 22.1355C19.0209 21.97 18.9397 21.7721 18.9419 21.5419C18.9502 20.7253 18.9558 18.5225 18.9586 14.9336C18.9586 14.8095 18.9619 14.5457 18.9685 14.1422C18.9744 13.7892 19.0575 13.5469 19.4266 13.5326C19.7832 13.5184 20.2679 13.4564 20.5606 13.6048C20.5853 13.6175 20.6078 13.6345 20.6271 13.655Z" fill="#30B063"/>
</svg>
