<svg width="15" height="18" viewBox="0 0 15 18" fill="none" xmlns="http://www.w3.org/2000/svg">
<path d="M13.9449 7.33988C13.9449 12.4775 7.33939 16.8812 7.33939 16.8812C7.33939 16.8812 0.733887 12.4775 0.733887 7.33988C0.733887 5.58799 1.42982 3.90785 2.66859 2.66908C3.90737 1.43031 5.5875 0.734375 7.33939 0.734375C9.09128 0.734375 10.7714 1.43031 12.0102 2.66908C13.249 3.90785 13.9449 5.58799 13.9449 7.33988Z" stroke="white" stroke-width="1.46789" stroke-linecap="round" stroke-linejoin="round"/>
<path d="M7.33807 9.54137C8.55411 9.54137 9.5399 8.55557 9.5399 7.33953C9.5399 6.12349 8.55411 5.1377 7.33807 5.1377C6.12203 5.1377 5.13623 6.12349 5.13623 7.33953C5.13623 8.55557 6.12203 9.54137 7.33807 9.54137Z" stroke="white" stroke-width="1.46789" stroke-linecap="round" stroke-linejoin="round"/>
</svg>
