<svg width="48" height="48" viewBox="0 0 48 48" fill="none" xmlns="http://www.w3.org/2000/svg">
<rect width="48" height="48" rx="6" fill="#F7F7F7"/>
<rect x="0.5" y="0.5" width="47" height="47" rx="5.5" stroke="black" stroke-opacity="0.02"/>
<g clip-path="url(#clip0_11_650)">
<path d="M20 27H28" stroke="black" stroke-width="1.5" stroke-linecap="round" stroke-linejoin="round"/>
<path d="M20 23H28" stroke="black" stroke-width="1.5" stroke-linecap="round" stroke-linejoin="round"/>
<path d="M28 13H33C33.2652 13 33.5196 13.1054 33.7071 13.2929C33.8946 13.4804 34 13.7348 34 14V35C34 35.2652 33.8946 35.5196 33.7071 35.7071C33.5196 35.8946 33.2652 36 33 36H15C14.7348 36 14.4804 35.8946 14.2929 35.7071C14.1054 35.5196 14 35.2652 14 35V14C14 13.7348 14.1054 13.4804 14.2929 13.2929C14.4804 13.1054 14.7348 13 15 13H20" stroke="black" stroke-width="1.5" stroke-linecap="round" stroke-linejoin="round"/>
<path d="M19 17V16C19 14.6739 19.5268 13.4021 20.4645 12.4645C21.4021 11.5268 22.6739 11 24 11C25.3261 11 26.5979 11.5268 27.5355 12.4645C28.4732 13.4021 29 14.6739 29 16V17H19Z" stroke="black" stroke-width="1.5" stroke-linecap="round" stroke-linejoin="round"/>
</g>
<defs>
<clipPath id="clip0_11_650">
<rect width="32" height="32" fill="white" transform="translate(8 8)"/>
</clipPath>
</defs>
</svg>
