<svg width="48" height="48" viewBox="0 0 48 48" fill="none" xmlns="http://www.w3.org/2000/svg">
<rect width="48" height="48" rx="6" fill="#F7F7F7"/>
<rect x="0.5" y="0.5" width="47" height="47" rx="5.5" stroke="black" stroke-opacity="0.02"/>
<path d="M17.1963 15.2783C17.4412 15.2446 17.691 15.2904 17.9102 15.4072C18.1289 15.5239 18.3053 15.7068 18.4141 15.9297C18.5226 16.1524 18.5582 16.4034 18.5156 16.6475C18.473 16.8916 18.3545 17.1164 18.1768 17.2891L18.1738 17.292C17.3578 18.1071 16.7105 19.0758 16.2695 20.1416C15.8287 21.207 15.6021 22.3489 15.6035 23.502C15.6015 24.6555 15.8276 25.7984 16.2686 26.8643C16.7096 27.9302 17.3572 28.899 18.1738 29.7139L18.1777 29.7178C18.2914 29.8263 18.3827 29.9565 18.4453 30.1006C18.5078 30.2446 18.5411 30.3997 18.543 30.5566C18.5448 30.7138 18.5153 30.8701 18.4561 31.0156C18.3968 31.1612 18.3084 31.2932 18.1973 31.4043C18.0861 31.5154 17.9541 31.6038 17.8086 31.6631C17.663 31.7224 17.5068 31.7518 17.3496 31.75C17.1926 31.7482 17.0376 31.7149 16.8936 31.6523C16.7494 31.5897 16.6193 31.4984 16.5107 31.3848L16.5068 31.3809L16.126 30.9805C14.2791 28.935 13.2501 26.2718 13.25 23.5029C13.25 20.5492 14.4214 17.7157 16.5068 15.624L16.5078 15.6221C16.6917 15.4341 16.9336 15.3129 17.1943 15.2783H17.1963ZM31.4834 15.251C31.6398 15.2538 31.7944 15.2884 31.9375 15.3516C32.0805 15.4147 32.2099 15.5055 32.3174 15.6191L32.3213 15.624C34.4067 17.7157 35.5781 20.5492 35.5781 23.5029C35.5781 26.4565 34.4066 29.2892 32.3213 31.3809L32.3174 31.3848C32.2088 31.4984 32.0787 31.5897 31.9346 31.6523C31.7905 31.7149 31.6355 31.7482 31.4785 31.75C31.3213 31.7518 31.1651 31.7224 31.0195 31.6631C30.874 31.6038 30.742 31.5154 30.6309 31.4043C30.5197 31.2932 30.4314 31.1612 30.3721 31.0156C30.3128 30.8701 30.2833 30.7138 30.2852 30.5566C30.287 30.3997 30.3203 30.2446 30.3828 30.1006C30.4455 29.9565 30.5367 29.8263 30.6504 29.7178L30.6543 29.7139C31.4704 28.8987 32.1176 27.9301 32.5586 26.8643C32.9445 25.9317 33.1655 24.9405 33.2139 23.9346L33.2246 23.502C33.2265 22.3487 33.0005 21.2062 32.5596 20.1406C32.1185 19.0748 31.4708 18.1068 30.6543 17.292L30.6475 17.2861L30.5322 17.1611C30.4257 17.0284 30.3488 16.8735 30.3076 16.707C30.2529 16.4854 30.2637 16.2526 30.3389 16.0371C30.4142 15.8214 30.5514 15.6316 30.7324 15.4922C30.9133 15.353 31.1308 15.2697 31.3584 15.252L31.3701 15.251H31.4834ZM27.8486 18.4316C28.0095 18.4214 28.1706 18.4444 28.3223 18.499C28.474 18.5538 28.6131 18.6393 28.7305 18.75L28.7344 18.7529C29.3951 19.3544 29.9216 20.0883 30.2812 20.9062C30.5959 21.6219 30.7766 22.3881 30.8145 23.167L30.8223 23.502C30.8208 24.3976 30.6313 25.2836 30.2666 26.1016C29.902 26.9193 29.37 27.6514 28.7051 28.251L28.6963 28.2588L28.6885 28.2676C28.5775 28.3878 28.4421 28.4836 28.292 28.5488C28.142 28.614 27.9799 28.6474 27.8164 28.6465C27.6528 28.6455 27.4911 28.6099 27.3418 28.543C27.1926 28.476 27.0587 28.3792 26.9492 28.2578C26.8397 28.1363 26.7572 27.9924 26.7061 27.8369C26.655 27.6815 26.6364 27.5173 26.6523 27.3545C26.6683 27.1917 26.7184 27.0341 26.7988 26.8916C26.8792 26.7491 26.988 26.6243 27.1191 26.5264L27.1289 26.5195L27.1377 26.5117C27.5585 26.1317 27.8947 25.667 28.124 25.1484C28.3247 24.6946 28.4397 24.2083 28.4639 23.7139L28.4688 23.502C28.4706 22.9354 28.3532 22.3746 28.124 21.8564C27.9233 21.4026 27.6405 20.9903 27.291 20.6396L27.1377 20.4932L27.1348 20.4912L27.0127 20.3662C26.9006 20.2336 26.8183 20.0775 26.7734 19.9082C26.7136 19.6824 26.7226 19.4435 26.7988 19.2227C26.8752 19.0018 27.0156 18.8078 27.2021 18.667C27.3885 18.5264 27.6126 18.4446 27.8457 18.4316H27.8486ZM20.8145 18.4297C21.0615 18.4068 21.3088 18.464 21.5225 18.5908C21.7367 18.718 21.9047 18.9097 22.0029 19.1387C22.1011 19.3675 22.1248 19.6215 22.0693 19.8643C22.0138 20.1072 21.8823 20.3267 21.6943 20.4902L21.6904 20.4932C21.2695 20.8732 20.9335 21.3378 20.7041 21.8564C20.4749 22.3746 20.3575 22.9354 20.3594 23.502C20.3573 24.0688 20.4749 24.63 20.7041 25.1484C20.9332 25.6667 21.269 26.1308 21.6895 26.5107C21.8035 26.6153 21.8964 26.7417 21.9619 26.8818C22.0274 27.0222 22.0644 27.1744 22.0713 27.3291C22.0781 27.4839 22.0548 27.6386 22.002 27.7842C21.949 27.93 21.8674 28.0643 21.7627 28.1787C21.6581 28.293 21.532 28.3856 21.3916 28.4512C21.2512 28.5168 21.0992 28.5546 20.9443 28.5615C20.7894 28.5684 20.6341 28.5441 20.4883 28.4912C20.3427 28.4383 20.209 28.3574 20.0947 28.2529L20.0938 28.252L19.8574 28.0264C18.7066 26.8692 18.0059 25.2618 18.0059 23.5029L18.0156 23.168C18.0578 22.3875 18.2425 21.6199 18.5615 20.9043C18.9261 20.0866 19.4582 19.3544 20.123 18.7549L20.1279 18.75C20.3154 18.5708 20.5566 18.4575 20.8145 18.4297ZM24.4141 22.0293C24.6083 22.029 24.8003 22.0661 24.9785 22.1396C25.1573 22.2135 25.3202 22.3222 25.457 22.459C25.5939 22.5959 25.7034 22.7586 25.7773 22.9375C25.8513 23.1164 25.889 23.3084 25.8887 23.502V23.5029C25.8886 23.7942 25.8024 24.0791 25.6406 24.3213C25.4788 24.5635 25.2486 24.7527 24.9795 24.8643C24.7103 24.9758 24.4137 25.005 24.1279 24.9482C23.8421 24.8915 23.5791 24.7509 23.373 24.5449C23.1671 24.339 23.0267 24.0766 22.9697 23.791C22.9128 23.5053 22.9423 23.2087 23.0537 22.9395C23.1651 22.6703 23.3536 22.4403 23.5957 22.2783C23.8379 22.1163 24.1227 22.0295 24.4141 22.0293Z" fill="#1C1B1F" stroke="#F7F7F7" stroke-width="0.5"/>
</svg>
