<svg width="81" height="81" viewBox="0 0 81 81" fill="none" xmlns="http://www.w3.org/2000/svg">
<g clip-path="url(#clip0_11_357)">
<circle cx="39.5" cy="40.5" r="40.5" fill="#2DAF5F"/>
<g clip-path="url(#clip1_11_357)">
<path d="M50.0625 21.8335H47.6665V19.9165C47.6665 18.8588 46.8099 18 45.75 18C44.6901 18 43.8335 18.8588 43.8335 19.9165V21.8335H28.5V19.9165C28.5 18.8588 27.6433 18 26.5835 18C25.5236 18 24.6665 18.8588 24.6665 19.9165V21.8335H22.271C19.3633 21.8335 17 24.1964 17 27.1041V48.6666C17 51.8367 19.5798 54.4166 22.75 54.4166H32.3335C33.3933 54.4166 34.25 53.5581 34.25 52.5C34.25 51.4419 33.3933 50.5835 32.3335 50.5835H22.75C21.6919 50.5835 20.8335 49.7229 20.8335 48.6666V33.3335H51.5C51.5 34.3912 52.3567 35.25 53.4165 35.25C54.4764 35.25 55.3335 34.3912 55.3335 33.3335V27.1041C55.3335 24.1964 52.9701 21.8335 50.0625 21.8335Z" fill="white"/>
<path d="M50.5416 39.0835C43.6724 39.0835 38.0835 44.6724 38.0835 51.5416C38.0835 58.4111 43.6724 64 50.5416 64C57.4111 64 63 58.4111 63 51.5416C63 44.6724 57.4111 39.0835 50.5416 39.0835ZM56.3032 49.4429L50.0741 56.6304C49.7253 57.0329 49.2248 57.2705 48.6942 57.2916C48.671 57.2916 48.6482 57.2916 48.625 57.2916C48.1172 57.2916 47.6304 57.0905 47.27 56.7301L43.916 53.376C43.1663 52.6264 43.1663 51.4153 43.916 50.666C44.6653 49.9163 45.8764 49.9163 46.626 50.666L48.5254 52.5653L53.4054 46.9339C54.0992 46.1327 55.3103 46.0506 56.1098 46.7406C56.9089 47.4323 56.9953 48.6438 56.3032 49.4429Z" fill="white"/>
</g>
</g>
<defs>
<clipPath id="clip0_11_357">
<rect width="81" height="81" fill="white"/>
</clipPath>
<clipPath id="clip1_11_357">
<rect width="46" height="46" fill="white" transform="translate(17 18)"/>
</clipPath>
</defs>
</svg>
