<svg width="81" height="81" viewBox="0 0 81 81" fill="none" xmlns="http://www.w3.org/2000/svg">
<g clip-path="url(#clip0_11_334)">
<circle cx="39.5" cy="40.5" r="40.5" fill="#2DAF5F"/>
<g clip-path="url(#clip1_11_334)">
<path d="M60.7397 59.4804H59.3959V34.6213C59.3959 33.9256 58.8319 33.3616 58.1362 33.3616H53.0972C52.4015 33.3616 51.8374 33.9256 51.8374 34.6213V59.4804H49.3179V43.0196C49.3179 42.3239 48.7539 41.7599 48.0582 41.7599H43.0192C42.3235 41.7599 41.7595 42.3239 41.7595 43.0196V59.4804H39.24V47.6387C39.24 46.943 38.6759 46.379 37.9802 46.379H32.9412C32.2455 46.379 31.6815 46.943 31.6815 47.6387V59.4804H29.162V50.6621C29.162 49.9664 28.5979 49.4024 27.9022 49.4024H22.8632C22.1675 49.4024 21.6035 49.9664 21.6035 50.6621V59.4804H20.2597C19.564 59.4804 19 60.0444 19 60.7401C19 61.4358 19.564 61.9999 20.2597 61.9999H60.7397C61.4354 61.9999 61.9994 61.4358 61.9994 60.7401C61.9994 60.0444 61.4354 59.4804 60.7397 59.4804Z" fill="white"/>
<path d="M20.2597 46.0689C28.1221 46.0689 36.6482 43.2452 44.2677 38.1179C50.2351 34.1023 55.2095 28.9723 58.2994 23.7194L59.5229 28.2853C59.6737 28.8482 60.402 29.3345 61.0658 29.1761C61.7425 29.0147 62.1366 28.3053 61.9565 27.6332L59.8936 19.9345C59.7135 19.2625 59.023 18.8636 58.3508 19.0437L50.652 21.1066C49.98 21.2867 49.5812 21.9775 49.7613 22.6495C49.9414 23.3215 50.6319 23.7204 51.3041 23.5402L56.2638 22.2113C53.3811 27.2205 48.6169 32.1544 42.8611 36.0276C35.6529 40.8781 27.6263 43.5494 20.2597 43.5494C19.564 43.5494 19 44.1134 19 44.8091C19 45.5048 19.564 46.0689 20.2597 46.0689Z" fill="white"/>
</g>
</g>
<defs>
<clipPath id="clip0_11_334">
<rect width="81" height="81" fill="white"/>
</clipPath>
<clipPath id="clip1_11_334">
<rect width="43" height="43" fill="white" transform="translate(19 19)"/>
</clipPath>
</defs>
</svg>
