<svg width="48" height="48" viewBox="0 0 48 48" fill="none" xmlns="http://www.w3.org/2000/svg">
<rect width="48" height="48" rx="6" fill="#F7F7F7"/>
<g clip-path="url(#clip0_11_644)">
<path d="M14.9609 24.9113C14.6825 24.9113 14.4156 25.0219 14.2188 25.2187C14.0219 25.4155 13.9114 25.6824 13.9114 25.9608C13.9114 26.2391 14.0219 26.5061 14.2188 26.7029C14.4156 26.8997 14.6825 27.0103 14.9609 27.0103C15.7959 27.0103 16.5967 27.342 17.1871 27.9324C17.7776 28.5229 18.1093 29.3237 18.1093 30.1587C18.1093 30.437 18.2199 30.704 18.4167 30.9008C18.6135 31.0976 18.8804 31.2082 19.1588 31.2082C19.4371 31.2082 19.7041 31.0976 19.9009 30.9008C20.0977 30.704 20.2083 30.437 20.2083 30.1587C20.2083 28.767 19.6554 27.4323 18.6713 26.4482C17.6872 25.4641 16.3526 24.9113 14.9609 24.9113ZM14.2157 29.4136C14.0698 29.5607 13.9707 29.7477 13.9309 29.951C13.8911 30.1544 13.9124 30.3649 13.9921 30.5562C14.0718 30.7475 14.2063 30.9109 14.3787 31.0258C14.5511 31.1408 14.7537 31.2021 14.9609 31.2021C15.1681 31.2021 15.3706 31.1408 15.543 31.0258C15.7154 30.9109 15.8499 30.7475 15.9296 30.5562C16.0093 30.3649 16.0306 30.1544 15.9908 29.951C15.951 29.7477 15.8519 29.5607 15.706 29.4136C15.6084 29.3152 15.4924 29.2371 15.3645 29.1838C15.2366 29.1306 15.0994 29.1031 14.9609 29.1031C14.8223 29.1031 14.6851 29.1306 14.5573 29.1838C14.4294 29.2371 14.3133 29.3152 14.2157 29.4136ZM31.7525 14.4165H17.0598C16.2248 14.4165 15.424 14.7482 14.8335 15.3387C14.2431 15.9291 13.9114 16.7299 13.9114 17.5649C13.9114 17.8433 14.0219 18.1102 14.2188 18.307C14.4156 18.5039 14.6825 18.6144 14.9609 18.6144C15.2392 18.6144 15.5061 18.5039 15.703 18.307C15.8998 18.1102 16.0103 17.8433 16.0103 17.5649C16.0103 17.2866 16.1209 17.0197 16.3177 16.8228C16.5145 16.626 16.7815 16.5155 17.0598 16.5155H31.7525C32.0309 16.5155 32.2978 16.626 32.4946 16.8228C32.6914 17.0197 32.802 17.2866 32.802 17.5649V28.0597C32.802 28.3381 32.6914 28.605 32.4946 28.8018C32.2978 28.9986 32.0309 29.1092 31.7525 29.1092H27.5546C27.2763 29.1092 27.0093 29.2198 26.8125 29.4166C26.6157 29.6134 26.5051 29.8804 26.5051 30.1587C26.5051 30.437 26.6157 30.704 26.8125 30.9008C27.0093 31.0976 27.2763 31.2082 27.5546 31.2082H31.7525C32.5875 31.2082 33.3884 30.8765 33.9788 30.286C34.5693 29.6956 34.901 28.8947 34.901 28.0597V17.5649C34.901 16.7299 34.5693 15.9291 33.9788 15.3387C33.3884 14.7482 32.5875 14.4165 31.7525 14.4165ZM14.9609 20.7134C14.6825 20.7134 14.4156 20.8239 14.2188 21.0208C14.0219 21.2176 13.9114 21.4845 13.9114 21.7629C13.9114 22.0412 14.0219 22.3081 14.2188 22.505C14.4156 22.7018 14.6825 22.8123 14.9609 22.8123C16.9092 22.8123 18.7778 23.5863 20.1555 24.964C21.5332 26.3417 22.3072 28.2103 22.3072 30.1587C22.3072 30.437 22.4178 30.704 22.6146 30.9008C22.8114 31.0976 23.0784 31.2082 23.3567 31.2082C23.635 31.2082 23.902 31.0976 24.0988 30.9008C24.2956 30.704 24.4062 30.437 24.4062 30.1587C24.4062 27.6536 23.411 25.2512 21.6397 23.4798C19.8684 21.7085 17.4659 20.7134 14.9609 20.7134Z" fill="#1C1B1F"/>
</g>
<defs>
<clipPath id="clip0_11_644">
<rect width="26" height="26" fill="white" transform="translate(11 9)"/>
</clipPath>
</defs>
</svg>
