<svg width="48" height="48" viewBox="0 0 48 48" fill="none" xmlns="http://www.w3.org/2000/svg">
<rect width="48" height="48" rx="6" fill="#F7F7F7"/>
<rect x="0.5" y="0.5" width="47" height="47" rx="5.5" stroke="black" stroke-opacity="0.02"/>
<g clip-path="url(#clip0_11_636)">
<path d="M21 29H27" stroke="white" stroke-width="1.5" stroke-linecap="round" stroke-linejoin="round"/>
<path d="M24 26V32" stroke="white" stroke-width="1.5" stroke-linecap="round" stroke-linejoin="round"/>
<path d="M23.5002 16.2339C23.7365 16.234 23.963 16.3276 24.1301 16.4946C24.2973 16.6618 24.3918 16.889 24.3918 17.1255C24.3918 17.3619 24.2973 17.5882 24.1301 17.7554C23.963 17.9225 23.7366 18.017 23.5002 18.0171C21.8224 18.0171 20.1815 18.5146 18.7864 19.4468C17.3916 20.3789 16.3044 21.7036 15.6624 23.2534C15.0203 24.8034 14.8527 26.5093 15.1799 28.1548C15.5072 29.8003 16.3149 31.3121 17.5012 32.4985C18.6876 33.685 20.1994 34.4935 21.845 34.8208C23.4905 35.1481 25.1963 34.9795 26.7463 34.3374C28.2964 33.6953 29.6218 32.6084 30.554 31.2134C31.486 29.8184 31.9836 28.1782 31.9836 26.5005C31.9836 26.264 32.0772 26.0368 32.2444 25.8696C32.4116 25.7024 32.6388 25.6089 32.8752 25.6089C33.1115 25.609 33.338 25.7026 33.5051 25.8696C33.6723 26.0368 33.7668 26.264 33.7668 26.5005C33.7667 32.1705 29.1703 36.7669 23.5002 36.7671C17.8301 36.7671 13.2338 32.1706 13.2336 26.5005C13.2336 20.8302 17.83 16.2339 23.5002 16.2339ZM23.5002 20.3999C23.7366 20.4 23.963 20.4945 24.1301 20.6616C24.2973 20.8288 24.3918 21.0551 24.3918 21.2915C24.3918 21.528 24.2973 21.7551 24.1301 21.9224C23.963 22.0894 23.7365 22.183 23.5002 22.1831C22.6466 22.1831 21.8116 22.4364 21.1018 22.9106C20.392 23.3849 19.8387 24.0594 19.512 24.8481C19.1853 25.6369 19.0993 26.505 19.2659 27.3423C19.4324 28.1796 19.8439 28.9486 20.4475 29.5522C21.0511 30.1559 21.8202 30.5673 22.6575 30.7339C23.4948 30.9004 24.3629 30.8145 25.1516 30.4878C25.9404 30.1611 26.6148 29.6078 27.0891 28.8979C27.5632 28.1882 27.8166 27.354 27.8167 26.5005C27.8167 26.2641 27.9103 26.0368 28.0774 25.8696C28.2446 25.7024 28.4718 25.6089 28.7083 25.6089C28.9447 25.6089 29.1719 25.7024 29.3391 25.8696C29.5062 26.0368 29.5999 26.2641 29.5999 26.5005C29.5998 27.7068 29.2417 28.8861 28.5715 29.8892C27.9013 30.8922 26.9488 31.6746 25.8342 32.1362C24.7197 32.5979 23.493 32.7183 22.3098 32.4829C21.1267 32.2476 20.0398 31.6669 19.1868 30.814C18.3337 29.9609 17.7522 28.8732 17.5168 27.6899C17.2816 26.5068 17.4028 25.2801 17.8645 24.1655C18.3262 23.0511 19.1077 22.0984 20.1106 21.4282C21.1137 20.7579 22.2938 20.3999 23.5002 20.3999ZM30.345 16.3374C30.4431 16.3375 30.5372 16.3765 30.6067 16.4458C30.6762 16.5153 30.7151 16.6101 30.7151 16.7085V18.6147L30.7288 18.7466C30.7547 18.8752 30.8182 18.9943 30.9124 19.0884C31.038 19.2138 31.2084 19.2846 31.386 19.2847H33.2913C33.3896 19.2847 33.4844 19.3235 33.554 19.3931C33.6235 19.4626 33.6624 19.5574 33.6624 19.6558V20.5464L31.7395 22.4692C31.3771 22.8316 30.8858 23.0354 30.3733 23.0356H28.2278L28.1838 23.0796L24.1331 27.1284C23.9649 27.2908 23.7399 27.3814 23.5061 27.3794C23.2723 27.3774 23.0484 27.283 22.8831 27.1177C22.7179 26.9524 22.6243 26.7283 22.6223 26.4946C22.6204 26.2619 22.7092 26.0375 22.8704 25.8696L26.9231 21.8188L26.967 21.7749V19.6294C26.9669 19.1168 27.1702 18.6249 27.5325 18.2622L29.4573 16.3374H30.345Z" fill="#05141E" stroke="#F7F7F7" stroke-width="0.3"/>
</g>
<defs>
<clipPath id="clip0_11_636">
<rect width="32" height="32" fill="white" transform="translate(8 11)"/>
</clipPath>
</defs>
</svg>
