<svg width="15" height="14" viewBox="0 0 15 14" fill="none" xmlns="http://www.w3.org/2000/svg">
<path d="M6.88324 0.24774C7.02661 -0.0828921 7.4955 -0.0828924 7.63887 0.24774L9.40091 4.31117C9.46058 4.44878 9.59035 4.54306 9.73966 4.55729L14.1487 4.97742C14.5075 5.01161 14.6524 5.45754 14.3822 5.69607L11.0622 8.62754C10.9497 8.72681 10.9002 8.87937 10.9328 9.02577L11.8957 13.3489C11.974 13.7006 11.5947 13.9762 11.2844 13.793L7.47041 11.5413C7.34126 11.4651 7.18085 11.4651 7.05169 11.5413L3.23775 13.793C2.92741 13.9762 2.54808 13.7006 2.62643 13.3489L3.58933 9.02577C3.62194 8.87936 3.57237 8.72681 3.45994 8.62754L0.139889 5.69607C-0.130256 5.45754 0.0146363 5.01161 0.373391 4.97742L4.78244 4.55729C4.93176 4.54306 5.06152 4.44878 5.1212 4.31117L6.88324 0.24774Z" fill="#FFC046"/>
</svg>
