<svg width="81" height="81" viewBox="0 0 81 81" fill="none" xmlns="http://www.w3.org/2000/svg">
<g clip-path="url(#clip0_11_526)">
<circle cx="39.5" cy="40.5" r="40.5" fill="#2DAF5F"/>
<path d="M48.4988 21.9028H21.315C18.384 21.9028 16 24.2868 16 27.2179V51.0392C16 52.1673 17.2759 52.8033 18.1765 52.16L25.747 46.7587C26.3822 46.3061 27.1295 46.0665 27.9097 46.0665H44.5608C47.4918 46.0665 49.8758 43.6826 49.8758 40.7515V23.2798C49.8758 22.5197 49.2589 21.9028 48.4988 21.9028ZM41.8105 38.5832H25.9012C25.1411 38.5832 24.5243 37.9673 24.5243 37.2063C24.5243 36.4462 25.1411 35.8293 25.9012 35.8293H41.8105C42.5706 35.8293 43.1875 36.4462 43.1875 37.2063C43.1875 37.9673 42.5706 38.5832 41.8105 38.5832ZM41.8105 32.1575H25.9012C25.1411 32.1575 24.5243 31.5415 24.5243 30.7805C24.5243 30.0204 25.1411 29.4036 25.9012 29.4036H41.8105C42.5706 29.4036 43.1875 30.0204 43.1875 30.7805C43.1875 31.5415 42.5706 32.1575 41.8105 32.1575Z" fill="white"/>
<path d="M62.9999 37.8985V61.7188C62.9999 62.8394 61.7305 63.4876 60.8234 62.8397L53.253 57.4393C52.6177 56.9867 51.8705 56.7471 51.0902 56.7471H34.4392C31.5081 56.7471 29.1241 54.3622 29.1241 51.4312V48.8205H44.5607C49.0101 48.8205 52.6297 45.2009 52.6297 40.7515V32.5825H57.6849C60.616 32.5825 62.9999 34.9674 62.9999 37.8985Z" fill="white"/>
</g>
<defs>
<clipPath id="clip0_11_526">
<rect width="81" height="81" fill="white"/>
</clipPath>
</defs>
</svg>
