<svg width="48" height="48" viewBox="0 0 48 48" fill="none" xmlns="http://www.w3.org/2000/svg">
<rect width="48" height="48" rx="6" fill="#F7F7F7"/>
<rect x="0.5" y="0.5" width="47" height="47" rx="5.5" stroke="black" stroke-opacity="0.02"/>
<g clip-path="url(#clip0_11_661)">
<path d="M29.9744 29.249C30.5127 29.2496 31.0285 29.4639 31.4089 29.8447C31.7895 30.2256 32.0037 30.7419 32.0037 31.2803V31.9268C32.0036 32.8134 31.6866 33.6711 31.1101 34.3447C29.4687 36.2634 26.9437 37.252 23.4998 37.252C20.0559 37.2519 17.5332 36.2629 15.8953 34.3447C15.3203 33.6716 15.0047 32.8152 15.0046 31.9307V31.2803L15.0134 31.0947C15.0531 30.6641 15.2295 30.255 15.5193 29.9297C15.8001 29.6145 16.1711 29.3969 16.5789 29.3027C16.8142 29.526 17.0599 29.7374 17.3152 29.9365H17.0349C16.6785 29.9365 16.3367 30.0781 16.0847 30.3301C15.8327 30.5821 15.6912 30.9239 15.6912 31.2803V31.9297C15.6914 32.6518 15.9494 33.3506 16.4187 33.8994V33.8984C17.9559 35.6981 20.3314 36.5634 23.4998 36.5635C26.6685 36.5635 29.047 35.6988 30.5886 33.8984V33.8975C31.0582 33.3482 31.3164 32.6493 31.3162 31.9268V31.2803C31.3162 30.9245 31.1748 30.583 30.9236 30.3311C30.6725 30.0794 30.3318 29.9376 29.9763 29.9365H27.7761C27.8379 29.7137 27.8836 29.4843 27.9099 29.249H29.9744ZM23.1052 14.6338C24.9903 14.5327 26.8424 15.1583 28.28 16.3818C29.7177 17.6054 30.6312 19.3339 30.8328 21.2109C30.8466 21.3434 30.7362 21.5 30.531 21.5C30.3558 21.4998 30.1609 21.3464 30.1267 21.0918V21.0908L30.0515 20.6523C29.8428 19.6384 29.4008 18.6842 28.7585 17.8672C28.0246 16.9336 27.055 16.2123 25.95 15.7773C24.8449 15.3424 23.6439 15.2097 22.4705 15.3926C21.2969 15.5755 20.1936 16.0677 19.2732 16.8184C18.3528 17.5691 17.6482 18.5512 17.2332 19.6641C16.8182 20.7768 16.7069 21.9804 16.9109 23.1504C17.1149 24.3203 17.6272 25.4147 18.3943 26.3213C19.1614 27.228 20.156 27.9146 21.2761 28.3096L21.7126 28.4629L21.9001 28.04C22.0625 27.6731 22.3457 27.3732 22.7029 27.1904C23.0601 27.0077 23.4695 26.9531 23.8621 27.0361C24.2547 27.1192 24.6074 27.3346 24.8601 27.6465C25.1126 27.9583 25.2499 28.3478 25.2498 28.749C25.2497 29.2069 25.0753 29.6229 24.7878 29.9346L24.658 30.0615C24.3384 30.3438 23.9262 30.4998 23.4998 30.5H23.4988C23.1541 30.5012 22.8161 30.3999 22.5291 30.209C22.2421 30.0181 22.0186 29.746 21.8865 29.4277L21.8845 29.4229L21.8738 29.3994L21.7791 29.1777L21.5466 29.1133L21.1296 28.9863L21.1248 28.9844L21.113 28.9805L20.8425 28.8818C19.5011 28.3637 18.3383 27.4635 17.4998 26.29C16.6054 25.0385 16.1243 23.5383 16.1248 22L16.1335 21.6465C16.2175 19.8867 16.9292 18.2104 18.1462 16.9258C19.4448 15.5554 21.22 14.7349 23.1052 14.6338ZM23.3933 18.0029C24.0829 17.9845 24.7654 18.1445 25.3748 18.4678C25.9842 18.7912 26.5005 19.2671 26.8718 19.8486C27.2429 20.4299 27.4568 21.0975 27.4939 21.7861C27.5309 22.4751 27.3896 23.1623 27.0828 23.7803C26.8283 24.2927 26.4657 24.741 26.0242 25.1006C25.8181 24.9581 25.6012 24.8337 25.3757 24.7285C25.5413 24.6147 25.6984 24.4868 25.8425 24.3428C26.4637 23.7216 26.8123 22.8785 26.8123 22C26.8123 21.1216 26.4636 20.2794 25.8425 19.6582C25.2213 19.037 24.3783 18.6875 23.4998 18.6875C22.6214 18.6876 21.7791 19.0371 21.158 19.6582C20.5369 20.2794 20.1873 21.1216 20.1873 22C20.1873 22.8785 20.5367 23.7216 21.158 24.3428C21.3019 24.4866 21.4584 24.6148 21.6238 24.7285C21.3963 24.8349 21.1796 24.9599 20.9753 25.1016C20.5611 24.7652 20.2168 24.3494 19.9656 23.876C19.6592 23.2985 19.4989 22.6547 19.4998 22.001V22C19.5 21.3101 19.6786 20.6317 20.0183 20.0312C20.3581 19.4308 20.8479 18.9287 21.4392 18.5732C22.0305 18.2177 22.7036 18.0214 23.3933 18.0029Z" fill="#1C1B1F" stroke="black"/>
</g>
<defs>
<clipPath id="clip0_11_661">
<rect width="32" height="32" fill="white" transform="translate(8 8)"/>
</clipPath>
</defs>
</svg>
