<svg width="188" height="43" viewBox="0 0 188 43" fill="none" xmlns="http://www.w3.org/2000/svg">
<g clip-path="url(#clip0_11_23)">
<path d="M7.80568 42.6487C7.29692 42.621 6.97102 42.3879 6.88206 41.8589C6.78118 41.2614 6.93192 40.7645 7.33433 40.3682C8.09752 39.6145 8.60963 39.0695 9.86831 37.7642C9.95092 37.6781 10.1909 37.4171 10.5883 36.9811C11.1312 36.3842 11.7538 36.307 12.5453 36.307C18.581 36.3115 21.8092 36.3096 22.2298 36.3012C23.2932 36.2794 24.3839 36.1788 25.4838 35.8618C29.4868 34.7074 32.4631 31.498 33.1615 27.3437C33.3 26.5193 33.372 25.6105 33.3776 24.6172C33.397 21.2542 33.3884 18.8647 33.3518 17.4489C33.3419 17.0627 33.2884 16.5544 33.1914 15.9239C32.9281 14.213 32.311 12.6514 31.3399 11.2389C29.91 9.15718 27.8707 7.58436 25.4506 6.85746C24.3565 6.52827 23.2414 6.36643 22.1052 6.37205C20.9041 6.37821 19.8882 6.37845 19.0574 6.37288C17.5903 6.36335 16.5755 6.39663 16.0129 6.47266C12.8305 6.90276 9.92984 8.64998 8.16899 11.3605C7.18465 12.8755 6.64764 14.4785 6.42151 16.297C6.36496 16.752 6.33449 17.4652 6.33003 18.4366C6.29597 25.2377 6.3342 31.6489 6.31007 36.6273C6.30842 36.9845 6.2103 37.338 6.01576 37.6879C6.00083 37.7147 5.98329 37.7399 5.96343 37.7633C5.76995 37.9936 5.46707 38.3251 5.05473 38.7577C3.61037 40.2735 2.56812 41.3604 1.92797 42.0182C1.72761 42.2253 1.49483 42.4576 1.23378 42.5296C0.733854 42.6677 0.369165 42.4743 0.139709 41.9495C0.0853932 41.8259 0.0551872 41.6029 0.0490903 41.2804C0.0363429 40.6483 0.0296902 40.1872 0.029136 39.8971C0.0258106 36.9029 0.0180513 30.7127 0.00585794 21.3265C0.00336386 19.2582 -0.0348793 17.7173 0.122248 15.9415C0.360018 13.2653 1.18778 10.7555 2.60553 8.41186C5.18526 4.14861 9.37282 1.11864 14.2679 0.276049C15.3445 0.0907627 16.5899 0.013629 17.8486 0.00776015C20.0556 -0.00285954 21.5991 -0.00257926 22.4793 0.00859938C25.8479 0.0530346 29.0878 1.04905 31.8786 2.95892C34.0446 4.44065 35.8052 6.32622 37.1603 8.61558C38.813 11.4074 39.6599 14.4637 39.701 17.7843C39.7253 19.7596 39.7295 22.0163 39.7134 24.5544C39.7079 25.4621 39.6608 26.3625 39.5721 27.2557C39.4563 28.4233 39.1949 29.632 38.7881 30.8818C37.6924 34.2463 35.5741 37.1765 32.7716 39.2716C30.268 41.1429 27.4519 42.2488 24.3232 42.5891C23.7962 42.6467 22.939 42.6761 21.7518 42.6772C14.0418 42.6856 9.71868 42.6856 8.78256 42.6772C8.41344 42.6738 8.08783 42.6643 7.80568 42.6487Z" fill="#30B063"/>
<path d="M20.6271 13.655C20.7274 13.7623 20.7781 13.9658 20.7793 14.2654C20.7898 17.4278 20.7875 19.6429 20.7726 20.9106C20.7709 21.0715 20.8117 21.1906 20.8948 21.2677C21.8658 22.1682 22.7944 23.0971 23.7597 23.995C24.3882 24.5802 24.9012 25.1059 25.5504 25.6651C25.6369 25.7397 25.7275 25.8546 25.8356 25.9913C25.9991 26.198 25.9916 26.3998 25.8131 26.5966C25.4382 27.009 24.9668 27.658 24.5145 27.1977C24.0506 26.7265 23.6871 26.3677 23.4238 26.1212C20.8565 23.7228 19.4438 22.3943 19.1855 22.1355C19.0209 21.97 18.9397 21.7721 18.9419 21.5419C18.9502 20.7253 18.9558 18.5225 18.9586 14.9336C18.9586 14.8095 18.9619 14.5457 18.9685 14.1422C18.9744 13.7892 19.0575 13.5469 19.4266 13.5326C19.7832 13.5184 20.2679 13.4564 20.5606 13.6048C20.5853 13.6175 20.6078 13.6345 20.6271 13.655Z" fill="#30B063"/>
<path d="M179.969 9.83488C182.904 9.83488 184.976 10.3884 186.185 11.4953C187.395 12.5796 188 14.4546 188 17.1203V17.6286C188 20.2942 187.395 22.1806 186.185 23.2875C184.976 24.3718 182.904 24.914 179.969 24.914H172.946V32.8771H169.654V9.83488H179.969ZM179.465 21.9321C181.548 21.9321 182.926 21.6384 183.598 21.051C184.292 20.4411 184.64 19.2212 184.64 17.3914C184.64 15.5616 184.292 14.3417 183.598 13.7317C182.926 13.1218 181.548 12.8168 179.465 12.8168H172.946V21.9321H179.465Z" fill="white"/>
<path d="M145.796 9.83488H149.089V24.4396C149.089 26.6309 149.526 28.1219 150.4 28.9125C151.274 29.6806 152.953 30.0646 155.44 30.0646C157.927 30.0646 159.607 29.6806 160.48 28.9125C161.354 28.1219 161.791 26.6309 161.791 24.4396V9.83488H165.084V24.8801C165.084 27.8395 164.378 29.9517 162.967 31.2167C161.555 32.4592 159.158 33.0804 155.776 33.0804H155.104C151.744 33.0804 149.347 32.4592 147.913 31.2167C146.502 29.9517 145.796 27.8395 145.796 24.8801V9.83488Z" fill="white"/>
<path d="M138.441 9.83488H141.532V25.0496C141.532 27.8281 140.893 29.8613 139.617 31.149C138.362 32.4366 136.369 33.0804 133.636 33.0804H133.065C130.377 33.0804 128.405 32.4479 127.15 31.1828C125.896 29.8952 125.269 27.8733 125.269 25.1173V24.5412C125.269 21.7852 125.896 19.7747 127.15 18.5096C128.405 17.2446 130.377 16.612 133.065 16.612H133.434C135.629 16.612 137.298 17.0864 138.441 18.0352V9.83488ZM133.367 30.2002C135.294 30.2002 136.615 29.8274 137.332 29.0819C138.071 28.3138 138.441 26.9019 138.441 24.8462C138.441 22.8131 138.071 21.4125 137.332 20.6444C136.593 19.8763 135.271 19.4923 133.367 19.4923C131.441 19.4923 130.13 19.8763 129.436 20.6444C128.741 21.3899 128.394 22.7905 128.394 24.8462C128.394 26.9019 128.741 28.3138 129.436 29.0819C130.152 29.8274 131.463 30.2002 133.367 30.2002Z" fill="white"/>
<path d="M122.328 24.8123V25.9644H109.493C109.582 27.6813 109.997 28.856 110.735 29.4885C111.475 30.1211 112.797 30.4373 114.7 30.4373C116.336 30.4373 117.467 30.2679 118.095 29.929C118.744 29.5676 119.102 28.8898 119.17 27.8959H122.227C122.138 29.7257 121.511 31.0473 120.346 31.8605C119.181 32.6737 117.389 33.0804 114.969 33.0804H114.398C111.598 33.0804 109.559 32.4479 108.283 31.1828C107.028 29.9177 106.401 27.8959 106.401 25.1173V24.5412C106.401 21.7852 107.028 19.7746 108.283 18.5095C109.559 17.2445 111.553 16.612 114.264 16.612H114.835C117.456 16.612 119.36 17.2671 120.547 18.5773C121.734 19.865 122.328 21.9433 122.328 24.8123ZM114.465 19.2211C112.74 19.2211 111.508 19.5262 110.769 20.1361C110.052 20.746 109.627 21.8529 109.493 23.4568H119.271C119.159 21.8755 118.744 20.7799 118.027 20.17C117.333 19.5374 116.145 19.2211 114.465 19.2211Z" fill="white"/>
<path d="M95.8805 16.612C98.3895 16.612 100.192 17.1429 101.29 18.2046C102.41 19.2664 102.97 20.972 102.97 23.3213V32.8771H99.8789V23.9991C99.8789 22.3048 99.5543 21.1301 98.9045 20.475C98.2548 19.8199 97.1011 19.4923 95.4435 19.4923C93.6962 19.4923 92.4529 19.8424 91.714 20.5428C90.9969 21.243 90.6383 22.4403 90.6383 24.1346V32.8771H87.547V9.83488H90.6383V18.0691C91.7809 17.0977 93.3939 16.612 95.4769 16.612H95.8805Z" fill="white"/>
<path d="M76.298 16.612H76.8019C79.2212 16.612 81.0246 17.0863 82.2118 18.0352C83.4212 18.9614 84.0598 20.4523 84.1271 22.5081H81.0358C80.9907 21.4237 80.621 20.6556 79.9267 20.2038C79.2323 19.7294 78.1121 19.4922 76.5664 19.4922C74.685 19.4922 73.3743 19.8763 72.6354 20.6444C71.9183 21.3899 71.5602 22.7904 71.5602 24.8462C71.5602 26.8793 71.9183 28.2799 72.6354 29.048C73.3743 29.8161 74.685 30.2001 76.5664 30.2001C78.1349 30.2001 79.2658 29.9629 79.9606 29.4885C80.6549 29.0141 81.013 28.2009 81.0358 27.0488H84.1271C84.0375 29.1722 83.3989 30.7084 82.2118 31.6572C81.0469 32.606 79.2435 33.0804 76.8019 33.0804H76.298C73.6098 33.0804 71.6271 32.4479 70.3503 31.1828C69.0735 29.8951 68.4349 27.8733 68.4349 25.1173V24.5412C68.4349 21.7852 69.0624 19.7746 70.3169 18.5095C71.5936 17.2445 73.5875 16.612 76.298 16.612Z" fill="white"/>
<path d="M55.1887 9.63161H55.76C59.2099 9.63161 61.5395 10.1173 62.7489 11.0887C63.9588 12.0601 64.6197 13.8786 64.7316 16.5442H61.3714C61.3045 14.9403 60.9009 13.8673 60.162 13.3251C59.4226 12.783 57.8658 12.5119 55.491 12.5119C53.2733 12.5119 51.7839 12.7604 51.0222 13.2573C50.2605 13.7543 49.8796 14.7257 49.8796 16.1715C49.8796 17.6625 50.2944 18.6339 51.123 19.0857C51.7504 19.4246 53.2399 19.6617 55.5918 19.7973C56.4432 19.8425 56.8913 19.8651 56.9359 19.8651C60.3635 20.0684 62.6147 20.5428 63.6899 21.2883C64.7878 22.0337 65.3363 23.649 65.3363 26.1339V26.71C65.3363 29.0593 64.6643 30.7084 63.3202 31.6573C61.9761 32.6061 59.6576 33.0805 56.3647 33.0805H55.7939C52.2093 33.0805 49.79 32.5835 48.536 31.5895C47.2814 30.5955 46.5981 28.7431 46.4861 26.0322H49.8462C49.9135 27.6813 50.339 28.7883 51.123 29.353C51.9069 29.9178 53.5534 30.2002 56.0623 30.2002C58.4147 30.2002 59.9938 29.9404 60.8001 29.4208C61.6069 28.9012 62.01 27.9185 62.01 26.4728C62.01 24.9366 61.6069 23.9539 60.8001 23.5247C59.9938 23.0955 58.3023 22.8357 55.7265 22.7453C53.9119 22.6776 52.4782 22.5646 51.4253 22.4065C50.3729 22.2258 49.4542 21.9095 48.6702 21.4577C47.8862 21.0059 47.3373 20.3959 47.0237 19.6278C46.7325 18.8372 46.5869 17.798 46.5869 16.5104V15.9343C46.5869 13.6075 47.2253 11.981 48.5021 11.0548C49.8016 10.106 52.0305 9.63161 55.1887 9.63161Z" fill="white"/>
</g>
<defs>
<clipPath id="clip0_11_23">
<rect width="188" height="43" fill="white"/>
</clipPath>
</defs>
</svg>
