<svg width="18" height="18" viewBox="0 0 18 18" fill="none" xmlns="http://www.w3.org/2000/svg">
<path d="M16.1476 12.4183V14.6201C16.1484 14.8245 16.1065 15.0269 16.0246 15.2142C15.9427 15.4014 15.8226 15.5696 15.672 15.7077C15.5214 15.8459 15.3436 15.9511 15.1499 16.0166C14.9563 16.0821 14.7511 16.1064 14.5476 16.088C12.2891 15.8426 10.1197 15.0709 8.21362 13.8348C6.44028 12.708 4.9368 11.2045 3.80995 9.43115C2.56957 7.51644 1.79765 5.33646 1.55674 3.06784C1.5384 2.86488 1.56252 2.66033 1.62756 2.4672C1.69261 2.27407 1.79716 2.09661 1.93455 1.9461C2.07194 1.79559 2.23916 1.67534 2.42558 1.593C2.61199 1.51066 2.8135 1.46804 3.01729 1.46784H5.21912C5.57531 1.46434 5.92062 1.59047 6.19069 1.82273C6.46076 2.05499 6.63716 2.37753 6.68701 2.73023C6.77995 3.43487 6.9523 4.12673 7.20078 4.79262C7.29952 5.05531 7.32089 5.34081 7.26236 5.61528C7.20382 5.88975 7.06783 6.14169 6.8705 6.34124L5.93839 7.27335C6.9832 9.11081 8.50459 10.6322 10.3421 11.677L11.2742 10.7449C11.4737 10.5476 11.7257 10.4116 12.0001 10.3531C12.2746 10.2945 12.5601 10.3159 12.8228 10.4146C13.4887 10.6631 14.1805 10.8355 14.8852 10.9284C15.2417 10.9787 15.5673 11.1583 15.8001 11.433C16.0328 11.7077 16.1565 12.0584 16.1476 12.4183Z" stroke="white" stroke-width="1.46789" stroke-linecap="round" stroke-linejoin="round"/>
</svg>
