<svg width="81" height="81" viewBox="0 0 81 81" fill="none" xmlns="http://www.w3.org/2000/svg">
<ellipse cx="40" cy="40.5" rx="40" ry="40.5" fill="#2DAF5F"/>
<g clip-path="url(#clip0_11_308)">
<path d="M55.41 25.4437C51.1603 21.2884 45.51 19 39.5 19C33.49 19 27.8397 21.2884 23.59 25.4437C19.3404 29.5989 17 35.1236 17 41C17 46.8764 19.3404 52.4012 23.59 56.5563C27.8397 60.7115 33.49 63 39.5 63C45.51 63 51.1603 60.7116 55.41 56.5563C59.6596 52.4011 62 46.8764 62 41C62 35.1236 59.6596 29.5988 55.41 25.4437ZM39.5 58.6818C29.5285 58.6818 21.4163 50.7498 21.4163 41C21.4163 40.984 21.4169 40.9682 21.4169 40.9524C21.4169 40.9484 21.4163 40.9445 21.4163 40.9404C21.4163 40.9337 21.4172 40.9271 21.4174 40.9204C21.4612 31.2874 29.423 23.4502 39.2543 23.3213C39.2748 23.3203 39.2952 23.3183 39.316 23.3183C39.3285 23.3183 39.3407 23.3197 39.353 23.3201C39.4021 23.3197 39.451 23.3183 39.5001 23.3183C49.4715 23.3183 57.5838 31.2503 57.5838 41.0001C57.5838 50.7499 49.4715 58.6818 39.5 58.6818Z" fill="white"/>
<path d="M53.2361 42.0621C52.5008 42.0621 51.9048 41.4793 51.9048 40.7604C51.9048 40.0414 52.5008 39.4586 53.2361 39.4586H54.8409C54.0872 32.2333 48.0943 26.5015 40.6473 25.9634V27.3294C40.6473 28.0483 40.0512 28.6311 39.3159 28.6311C38.5806 28.6311 37.9846 28.0483 37.9846 27.3294V25.9945C30.6478 26.6975 24.8037 32.4486 24.1425 39.6384H25.5797C26.315 39.6384 26.911 40.2213 26.911 40.9402C26.911 41.6592 26.315 42.242 25.5797 42.242H24.1316C24.7438 49.5476 30.705 55.3943 38.1686 56.0214V54.3711C38.1686 53.6522 38.7647 53.0694 39.5 53.0694C40.2353 53.0694 40.8313 53.6522 40.8313 54.3711V56.0214C48.356 55.3892 54.3536 49.4514 54.8822 42.0621H53.2361ZM44.8894 37.5712L40.4415 41.9204C40.1918 42.1646 39.8532 42.3017 39.5001 42.3017C39.147 42.3017 38.8083 42.1646 38.5587 41.9204L30.8161 34.3499C30.2962 33.8416 30.2962 33.0174 30.8161 32.509C31.336 32.0006 32.1789 32.0006 32.6989 32.509L39.5001 39.159L43.0068 35.7303C43.5267 35.2219 44.3696 35.2219 44.8896 35.7303C45.4094 36.2386 45.4094 37.0629 44.8894 37.5712Z" fill="white"/>
</g>
<defs>
<clipPath id="clip0_11_308">
<rect width="45" height="44" fill="white" transform="translate(17 19)"/>
</clipPath>
</defs>
</svg>
